<?xml version="1.0" standalone="no"?>
<!DOCTYPE svg PUBLIC "-//W3C//DTD SVG 1.1//EN" "http://www.w3.org/Graphics/SVG/1.1/DTD/svg11.dtd" >
<svg xmlns="http://www.w3.org/2000/svg">
<metadata>Generated by IcoMoon</metadata>
<defs>
<font id="icomoon" horiz-adv-x="1024">
<font-face units-per-em="1024" ascent="960" descent="-64" />
<missing-glyph horiz-adv-x="1024" />
<glyph unicode="&#x20;" horiz-adv-x="512" d="" />
<glyph unicode="&#xe900;" glyph-name="excel" d="M625.664 827.392v-67.072h309.76v-43.008h-309.76v-69.632h309.76v-43.008h-309.76v-68.608h309.76v-43.008h-309.76v-68.608h309.76v-43.008h-309.76v-68.608h309.76v-43.008h-309.76v-68.096h309.76v-43.008h-309.76v-89.088h398.336v757.76h-398.336zM0 45.056l577.024-109.056v1024l-577.024-109.056zM229.376 299.52h-89.6l118.272 187.904-112.64 180.736h92.16l65.536-119.808 67.584 119.808h89.088l-112.64-177.664 119.808-190.976h-93.696l-70.144 125.44-73.728-125.44z" />
<glyph unicode="&#xe901;" glyph-name="eye" d="M941.677 568.29c9.338 14.006 6.225 32.681-6.225 43.575-14.006 10.894-32.681 7.781-43.575-6.225-1.556-1.556-174.301-205.427-379.727-205.427-199.201 0-379.727 205.427-381.284 206.982-10.894 12.451-31.125 14.006-43.575 3.113-12.451-10.894-14.006-31.125-3.113-43.575 3.113-4.668 40.463-46.687 99.6-93.376l-79.37-82.482c-12.451-12.451-10.894-32.681 1.556-43.575 3.113-6.225 10.894-9.338 18.675-9.338s15.562 3.113 21.787 9.338l85.594 88.706c40.463-28.013 88.706-54.47 141.619-73.144l-32.681-110.495c-4.668-17.119 4.669-34.238 21.787-38.906h9.338c14.006 0 26.457 9.338 29.568 23.344l32.681 110.495c24.9-4.668 51.357-7.781 77.813-7.781s52.913 3.113 77.813 7.781l32.681-108.938c3.113-14.006 17.119-23.344 29.569-23.344 3.113 0 6.225 0 7.781 1.556 17.119 4.669 26.457 21.787 21.788 38.906l-32.681 108.938c52.913 18.675 101.157 45.132 141.619 73.144l84.038-87.151c6.225-6.225 14.006-9.338 21.787-9.338s15.562 3.113 21.787 9.338c12.451 12.451 12.451 31.125 1.556 43.575l-79.37 82.482c63.808 46.688 101.159 91.82 101.159 91.82z" />
<glyph unicode="&#xe902;" glyph-name="form" horiz-adv-x="1069" d="M746.028 769.916q-11.242 0-18.906 7.665t-12.774 17.884-7.665 20.95-2.555 17.884v125.701h2.044q9.198 0 17.373-2.044t19.928-9.709 28.615-21.461 42.411-36.279q27.593-24.527 43.944-41.389t25.038-28.615 10.731-19.928 2.044-14.307v-16.351h-150.228zM1063.856 288.575q3.066-8.176 4.088-20.439t-10.22-23.505q-5.11-5.11-9.198-9.709t-7.154-7.665q-4.088-4.088-7.154-6.132l-86.866 85.844q6.132 5.11 13.796 12.263t12.774 11.242q12.263 11.242 26.571 9.709t23.505-6.643q10.22-5.11 21.972-17.884t17.884-27.082zM703.106 193.533q22.483 0 37.812 12.263l-198.259-206.435h-282.060q-19.417 0-42.411 11.242t-42.922 29.637-33.214 42.411-13.285 49.565v695.952q0 21.461 9.709 44.966t26.571 42.411 38.323 31.681 44.966 12.774h391.409v-127.745q0-19.417 6.132-41.9t18.906-41.389 33.214-31.681 49.054-12.774h149.206v-338.267l-140.008-145.118q11.242 16.351 11.242 35.768 0 26.571-18.906 45.477t-45.477 18.906h-383.234q-26.571 0-44.966-18.906t-18.395-45.477 18.395-44.966 44.966-18.395h383.234zM319.872 576.766q-26.571 0-44.966-18.906t-18.395-45.477 18.395-44.966 44.966-18.395h383.234q26.571 0 45.477 18.395t18.906 44.966-18.906 45.477-45.477 18.906h-383.234zM705.15 64.766l38.834 38.834q15.329 15.329 33.725 34.236t36.79 37.301q43.944 43.944 99.13 98.108l85.844-85.844-169.645-169.645q-14.307-14.307-24.016-24.527t-10.731-11.242q-5.11-4.088-11.242-8.687t-12.263-7.665-18.906-7.665-26.060-8.687-25.549-7.154-18.395-4.088q-12.263-2.044-16.351 3.066t-2.044 17.373q1.022 6.132 4.088 18.395t7.154 25.038 7.665 24.016 5.621 15.329q6.132 13.285 16.351 23.505z" />
<glyph unicode="&#xe903;" glyph-name="icon" d="M871.424 898.56q18.432 0 34.816-6.656t28.672-18.944 19.456-28.672 7.168-35.84v-720.896q0-38.912-25.088-64.512t-62.976-25.6h-721.92q-40.96 0-66.048 26.624t-25.088 66.56v718.848q0 35.84 24.576 62.464t65.536 26.624h720.896zM633.856 130.56q18.432 0 26.624 8.704t8.192 23.040q0 13.312-8.192 22.528t-26.624 9.216h-62.464q1.024 2.048 1.024 6.144v507.904h63.488q18.432 0 25.6 9.216t7.168 22.528-7.168 22.528-25.6 9.216h-249.856q-18.432 0-25.6-9.216t-7.168-22.528 7.168-22.528 25.6-9.216h57.344v-507.904q0-2.048 0.512-3.072t0.512-3.072h-56.32q-18.432 0-26.624-9.216t-8.192-22.528q0-14.336 8.192-23.040t26.624-8.704h245.76z" />
<glyph unicode="&#xe904;" glyph-name="international" d="M666.298 135.913c-12.567 30.72-54.225 83.316-123.578 156.393-18.618 19.549-17.455 34.444-10.705 78.895v5.12c4.422 30.487 12.102 48.407 114.502 64.698 52.131 8.145 65.629-12.567 84.713-41.425l6.284-9.542c12.010-19.101 29.726-33.659 50.733-41.432l0.699-0.227c9.076-4.189 20.247-9.309 35.375-17.92 36.771-20.247 36.771-43.287 36.771-94.022v-5.818c0.22-3.646 0.346-7.909 0.346-12.201 0-47.949-15.676-92.236-42.183-128.017l0.412 0.582c-42.989-37.302-93.553-67.257-148.909-87.169l-3.295-1.035c27.927 52.364 6.516 114.502 0 132.422zM512 919.040c0.117 0 0.256 0 0.395 0 74.011 0 144.009-17.179 206.225-47.768l-2.751 1.222c-39.505-23.085-73.38-50.513-102.58-82.303l-0.286-0.315c-7.447-10.24-13.731-19.782-19.782-28.625-19.549-29.556-29.091-42.822-46.545-44.916-5.054-0.452-10.933-0.71-16.873-0.71s-11.818 0.258-17.627 0.763l0.754-0.053c-34.211 2.327-80.756 5.12-95.651-35.375-9.542-25.833-11.171-95.651 19.549-131.956 2.99-4.809 4.762-10.645 4.762-16.894 0-4.221-0.808-8.253-2.279-11.95l0.077 0.219c-3.164-10.314-8.899-19.057-16.466-25.783l-0.057-0.050c-8.655 6.985-16.288 14.618-23.048 22.985l-0.225 0.287c-16.657 23.368-39.23 41.526-65.558 52.46l-1.002 0.369c-10.007 2.793-21.178 5.12-31.884 7.447-30.255 6.284-64.233 13.498-72.145 30.487-3.894 11.268-6.142 24.253-6.142 37.763 0 3.091 0.118 6.154 0.349 9.185l-0.025-0.403c0.237 3.414 0.372 7.399 0.372 11.416 0 22.502-4.236 44.016-11.953 63.786l0.41-1.194c-8.419 18.984-24.365 33.333-43.948 39.429l-0.503 0.135c86.028 92.594 208.47 150.342 344.4 150.342 0.013 0 0.025 0 0.038 0h-0.002zM0 448c0-282.77 229.23-512 512-512s512 229.23 512 512c0 282.77-229.23 512-512 512v0c-282.77 0-512-229.23-512-512v0z" />
<glyph unicode="&#xe905;" glyph-name="language" d="M686.682 652.8c18.071-54.212 42.165-96.376 84.329-138.541 36.141 36.141 60.235 84.329 78.306 138.541h-162.635zM289.129 351.624h156.612l-78.306 210.824zM891.482 929.882h-722.824c-66.259 0-120.471-54.212-120.471-120.471v-722.824c0-66.259 54.212-120.471 120.471-120.471h722.824c66.259 0 120.471 54.212 120.471 120.471v722.824c0 66.259-48.188 120.471-120.471 120.471zM596.329 152.847c-12.047-12.047-24.094-12.047-36.141-12.047-6.024 0-18.071 0-24.094 6.024s-12.047 0-12.047 6.024-6.024 12.047-12.047 24.094-6.024 18.071-12.047 30.118l-24.094 66.259h-210.824l-24.094-66.259c-12.047-24.094-18.071-42.165-24.094-54.212s-18.071-12.047-36.141-12.047c-12.047 0-24.094 6.024-36.141 12.047-12.047 12.047-18.071 18.071-18.071 30.118 0 6.024 0 12.047 6.024 24.094s6.024 18.071 12.047 30.118l132.518 337.318c6.024 12.047 6.024 24.094 12.047 36.141s12.047 24.094 18.071 30.118 12.047 18.071 24.094 24.094 24.094 6.024 36.141 6.024c12.047 0 24.094 0 36.141-6.024s18.071-12.047 24.094-24.094c6.024-6.024 12.047-18.071 18.071-30.118s12.047-24.094 18.071-42.165l132.518-331.294c12.047-24.094 18.071-42.165 18.071-54.212-6.024-6.024-12.047-18.071-18.071-30.118zM927.624 387.765c-66.259 24.094-114.447 54.212-156.612 90.353-42.165-42.165-96.376-72.282-162.635-90.353l-18.071 30.118c66.259 18.071 120.471 42.165 162.635 84.329-42.165 42.165-78.306 96.376-90.353 156.612h-60.235v24.094h162.635c-12.047 18.071-24.094 42.165-36.141 60.235l18.071 6.024c12.047-18.071 30.118-42.165 42.165-66.259h150.588v-30.118h-60.235c-18.071-60.235-48.188-114.447-84.329-150.588 42.165-36.141 90.353-66.259 156.612-84.329l-24.094-30.118z" />
<glyph unicode="&#xe906;" glyph-name="lock" d="M818.247 547.673h-45.988v70.992c0 152.308-123.464 275.779-275.779 275.779s-275.781-123.471-275.781-275.779v-70.992h-45.987c-25.379 0-45.988-20.566-45.988-45.987v-455.407c0-25.428 20.56-45.988 45.988-45.988h643.536c25.377 0 45.988 20.56 45.988 45.988v455.407c-0.045 25.421-20.611 45.987-45.988 45.987v0zM680.332 547.673h-367.707v70.992c0 101.554 82.344 183.853 183.854 183.853s183.853-82.343 183.853-183.853v-70.992h-0.001z" />
<glyph unicode="&#xe907;" glyph-name="message" d="M0 757.3v-428.3c0-83.3 68.3-150.7 152.6-150.7h228.9l8-190.3 224.9 190.3h257c84.3 0 152.6 67.4 152.6 150.7v428.3c0 83.3-68.3 150.7-152.6 150.7h-718.8c-84.3 0-152.6-67.4-152.6-150.7zM658.6 519.4c0 39.7 32.1 71.4 72.3 71.4s72.3-31.7 72.3-71.4-32.2-71.4-72.3-71.4c-40.2 0-72.3 31.7-72.3 71.4zM437.7 519.4c0 39.7 32.1 71.4 72.3 71.4s72.3-31.7 72.3-71.4-32.2-71.4-72.3-71.4c-40.2 0-72.3 31.7-72.3 71.4zM220.9 519.4c0 39.7 32.1 71.4 72.3 71.4s72.3-31.7 72.3-71.4-32.2-71.4-72.4-71.4c-40.1 0-72.2 31.7-72.2 71.4z" />
<glyph unicode="&#xe908;" glyph-name="money" d="M463.3 1.7v186.2h-234.5v77.5h234.5v80.5h-234.5v83.5h191.2l-228.5 402.6h113.7l163.8-292.6c18.2-33.4 32.4-62.4 42.7-86.9 9 19.8 24.6 50.5 46.8 92.1l155.4 287.4h120.8l-229.2-402.6h192.9v-83.5h-233.5v-80.5h233.5v-77.5h-233.5v-186.2h-101.6z" />
<glyph unicode="&#xe909;" glyph-name="password" d="M780.8 605.42h-115.2v42.89c0 72.31-19.85 193.3-153.6 193.3-138.87 0-153.6-135.050-153.6-193.3v-42.89h-115.2v42.89c0 189.44 105.59 311.69 268.8 311.69s268.8-122.25 268.8-311.69v-42.89zM588.8 290.58c0 43.52-34.58 78.651-76.8 78.651s-76.8-35.131-76.8-78.651c0-29.46 15.399-54.469 38.439-67.82v-89.639c0-21.74 17.25-39.7 38.4-39.7s38.4 17.959 38.4 39.7v89.639c23.001 13.351 38.361 38.361 38.361 67.82zM896 448v-393.61c0-65.26-51.87-118.39-115.2-118.39h-537.6c-63.291 0-115.2 53.13-115.2 118.39v393.61c0 65.221 51.87 118.39 115.2 118.39h537.6c63.33 0 115.2-53.169 115.2-118.39z" />
<glyph unicode="&#xe90a;" glyph-name="people" d="M780.108 198.941c54.451-60.351 87.706-138.983 87.706-225.358 0-12.015-0.659-23.882-1.902-35.581h-71.955c1.589 11.675 2.695 23.493 2.695 35.581 0 71.578-29.094 136.386-76.189 185.002-61.685-34.605-132.703-54.535-208.463-54.535-75.689 0-146.65 19.888-208.294 54.432-47.129-48.604-76.358-113.305-76.358-184.9 0-12.088 1.105-23.906 2.695-35.581h-71.955c-1.243 11.699-1.902 23.567-1.902 35.581 0 86.366 33.19 165.055 87.587 225.446-96.765 78.277-158.75 197.84-158.75 331.998 0 235.811 191.165 426.973 426.977 426.973s426.977-191.162 426.977-426.972c0-134.211-62.037-253.812-158.869-332.086zM512 664.213c-196.511 0-355.814 80.302-355.814-122.251 0-202.551 159.303-366.749 355.814-366.749s355.814 164.199 355.814 366.749c0 202.553-159.303 122.251-355.814 122.251zM678.047 459.864c-26.2 0-47.442 21.24-47.442 47.442 0 26.197 21.242 47.442 47.442 47.442 26.202 0 47.442-21.244 47.442-47.442-0.001-26.202-21.24-47.442-47.442-47.442zM654.326 329.399c0-32.754-63.722-59.302-142.326-59.302s-142.326 26.549-142.326 59.302c0 8.445 4.376 16.446 12.017 23.719 21.98-20.927 71.979-35.579 130.309-35.579s108.329 14.652 130.309 35.579c7.64-7.273 12.017-15.274 12.017-23.719zM345.953 459.864c-26.202 0-47.442 21.24-47.442 47.442 0 26.197 21.24 47.442 47.442 47.442 26.2 0 47.442-21.244 47.442-47.442 0-26.202-21.242-47.442-47.442-47.442z" />
<glyph unicode="&#xe90b;" glyph-name="peoples" d="M765.184 86.059c0-33.28-28.501-60.288-63.829-60.288h-637.525c-35.328 0-63.829 27.008-63.829 60.288 0 120.576 123.264 233.259 249.216 277.675-72.789 42.496-121.728 118.059-121.728 204.8v60.331c0 133.248 114.347 241.365 255.147 241.365s255.147-108.117 255.147-241.365v-60.288c0-86.827-48.981-162.304-121.728-204.843 125.909-44.459 249.131-157.099 249.131-277.675v0zM848.256 89.429h126.933c27.008 0 48.811 20.651 48.811 46.080 0 92.245-94.293 178.347-190.549 212.309 55.637 32.512 93.099 90.283 93.099 156.672v46.165c0 101.888-87.424 184.576-195.115 184.576-13.397 0-26.453-1.28-39.125-3.712 15.488-31.147 24.149-65.92 24.149-102.613v-60.288c0-86.827-24.448-152.747-88.533-204.843 118.741-29.141 218.496-154.795 220.331-274.347z" />
<glyph unicode="&#xe90c;" glyph-name="qq" d="M273.51 479.826l-1.198 3.727-0.973 4.844-0.645 2.652v10.926l1.157 4.301 1.178 4.547 1.556 4.772 2.099 5.315 2.755 5.519 3.891 5.53v3.871l0.379 3.625 0.604 4.925 1.669 5.54 1.536 5.98 1.229 2.744 1.413 2.56 1.823 2.847 1.987 2.12v13.67l1.147 7.045 1.157 8.182 2.058 9.789 2.836 10.189 2.109 5.601 2.089 6.093 2.294 5.683 2.744 6.093 2.796 6.666 3.215 6.246 3.615 6.666 4.557 6.656 2.109 3.82 2.243 3.123 4.884 7.045 5.028 7.025 5.704 7.229 6.113 7.035 6.636 6.932 6.922 7.127 8.376 7.69 5.315 4.68 6.482 5.048 6.574 4.454 7.107 4.28 6.83 3.809 7.7 3.154 8.182 3.881 8.131 2.662 8.11 2.765 8.765 2.744 8.755 2.089 9.206 1.741 9.339 1.505 9.216 1.229 9.206 1.26 9.82 0.532h29.010l9.667-1.219 9.718-1.157 9.902-1.034 9.196-2.212 9.708-2.068 9.114-2.376 9.984-2.652 9.134-3.236 8.745-3.697 9.339-3.912 8.52-4.27 8.284-4.751 8.12-5.233 6.994-4.864 3.246-2.744 3.4-2.007 6.492-5.509 5.468-5.325 5.458-5.509 5.315-6.083 4.383-5.898 5.222-6.093 3.635-6.543 3.686-5.816 3.912-6.769 3.246-5.888 5.458-12.462 2.683-6.441 2.099-5.97 2.099-6.482 1.884-6.093 1.311-5.243 1.7-6.164 2.98-11.008 1.905-9.636 1.239-9.318 1.065-7.496 1.679-11.418 0.379-1.812 1.341-2.058 3.615-5.908 2.324-4.004 2.058-4.168 2.621-4.465 2.314-5.356 1.505-5.478 1.638-6.011 1.239-6.164 0.563-3.031 0.522-3.738v-3.246l-0.522-3.215v-4.004l-0.942-3.881-1.72-7.516-1.976-3.799-1.464-4.27v-1.065l0.696-1.321 1.966-3.123 8.561-12.667 6.758-9.513 3.236-6.349 4.362-6.953 3.799-7.619 4.383-8.141 4.383-9.155 4.936-10.363 2.785-6.349 2.54-6.205 2.191-6.543 2.161-5.888 1.649-6.185 1.679-5.806 2.12-11.325 1.679-11.571 1.157-10.26v-14.479l-0.778-5.13-1.106-8.858-1.516-7.956-2.355-7.219-0.881-2.939-1.649-3.543-1.372-2.468-1.843-3.041-1.618-1.915-2.058-2.478-1.843-1.997-1.966-1.71-2.355-1.034-2.12-1.034-1.741-0.573h-2.662l-1.7 0.573-3.236 1.597-3.041 2.181-1.7 1.526-1.72 1.71-2.836 3.154-3.359 4.454-2.642 4.598-2.642 3.676-2.58 4.28-3.635 7.598-4.086 7.905-0.481 0.276h-0.676l-1.659-1.239-0.963-2.079-1.597-2.58-2.785-7.68-4.198-10.926-5.376-13.148-4.045-6.554-4.239-6.84-5.038-7.69-5.345-7.526-2.734-3.41-3.318-3.717-7.629-7.496 0.666-0.676 1.034-1.075 3.809-2.232 15.872-7.629 6.922-3.901 6.605-3.789 6.533-4.772 5.827-4.915 2.816-2.222 2.12-2.56 2.181-2.97 1.802-3.215 0.973-2.673 1.188-3.205 0.512-2.775 0.563-3.236-0.563-2.171v-2.202l-0.512-2.273-1.188-2.079-0.451-1.628-1.085-1.976-2.877-3.922-2.662-3.144-2.058-2.355-1.72-1.741-4.383-3.195-4.956-2.785-5.284-2.662-5.663-2.56-6.318-2.478-3.4-1.034-2.98-0.84-7.342-1.71-7.578-1.628-7.619-1.618-8.284-1.352-8.54-0.358-8.755-1.055h-27.177l-9.8 0.573-9.124 0.84-9.841 1.352-9.759 1.044-10.281 1.434-9.964 2.478-9.718 1.874-9.656 2.765-9.902 3.543-9.718 2.929-5.12 1.71-4.547 1.618-2.877 1.116-2.857 0.604h-8.079l-9.339 0.655-4.721 0.481-6.083 0.676-3.901-3.533-5.325-3.328-7.219-3.512-7.987-4.383-4.854-2.376-5.069-1.884-11.192-4.577-6.083-1.526-6.38-1.72-8.847-1.72-5.54-0.43-5.857-0.502-6.113-0.676-7.117-0.266h-29.071l-16.415 0.266-15.944 1.608-8.069 1.147-15.38 2.294-7.588 1.526-7.076 2.284-7.035 1.628-6.349 2.55-6.001 2.376-5.601 2.673-4.864 2.918-4.823 3.553-1.649 1.72-2.161 2.079-1.638 1.812-1.475 2.089-1.362 2.079-1.055 2.099-1.526 4.454-0.532 2.304-0.676 2.56v2.365l0.676 2.673v2.652l0.532 2.652v5.356l0.256 2.826 1.27 3.236 1.055 3.236 1.915 3.901 1.403 1.505 1.157 1.741 3.021 3.697 2.406 1.905 2.273 1.331 2.099 1.69 3.318 1.055 2.662 1.618 3.318 1.71 3.779 1.137 3.799 1.157 4.403 0.963 4.168 0.553 4.946 0.645 5.366 0.41 1.393 0.461h0.307l0.676 0.573v0.655l-0.983 1.331-2.847 1.352-7.117 6.164-4.782 3.809-5.53 4.844-5.571 5.417-5.796 6.922-6.676 7.803-2.488 4.219-3.297 4.362-2.847 5.038-2.56 5.509-3.451 5.243-2.253 5.98-2.683 5.97-2.683 6.656-1.946 6.38-1.853 7.885-0.553 0.287h-0.563l-0.287 0.563h-0.686l-1.126-0.563-0.563-0.287-0.778-1.321-0.276-1.608-0.584-1.434-1.014-2.386-3.256-5.796-1.69-3.512-2.683-3.062-2.847-3.686-3.144-4.086-3.318-3.625-3.901-3.512-3.604-3.297-3.994-2.621-4.362-2.734-4.198-1.628-4.946-1.239-4.854-0.471h-1.147l-1.116 0.471-0.881 1.925-1.423 0.942-1.864 4.567-1.167 2.468-1.249 3.543-1.034 3.676-0.553 3.625-1.536 8.253-0.584 4.864v15.954l0.584 11.909 0.963 6.083 1.126 6.267 1.034 6.748 1.833 6.277 2.058 7.229 2.12 7.045 2.836 7.25 2.673 6.912 3.697 7.014 3.43 7.608 4.198 7.137 4.936 7.7 5.018 6.922 5.243 7.7 4.372 5.366 5.601 6.144 5.898 6.195 2.744 2.949 3.328 3.318 4.833 4.188 4.966 4.27 8.079 7.24 6.093 4.454z" />
<glyph unicode="&#xe90d;" glyph-name="shoppingCard" d="M347.136 176.64q19.456 0 36.864-7.168t30.72-19.968 20.48-30.208 7.168-36.864-7.168-36.864-20.48-30.208-30.72-20.48-36.864-7.68q-20.48 0-37.376 7.68t-30.208 20.48-20.48 30.208-7.168 36.864 7.168 36.864 20.48 30.208 30.208 19.968 37.376 7.168zM773.12 174.592q19.456 0 37.376-7.168t30.72-19.968 20.48-30.208 7.68-36.864-7.68-36.864-20.48-30.208-30.72-20.48-37.376-7.68-36.864 7.68-30.208 20.48-20.48 30.208-7.68 36.864 7.68 36.864 20.48 30.208 30.208 19.968 36.864 7.168zM945.152 756.224q28.672 0 44.544-7.68t22.528-18.944 6.144-24.064-3.584-22.016-12.8-37.888-22.016-62.976-24.064-68.096-17.92-53.248q-13.312-40.96-33.792-56.832t-50.176-15.872h-537.6l15.36-92.16h516.096q49.152 0 49.152-41.984 0-20.48-9.728-35.328t-38.4-14.848h-536.576q-20.48 0-34.304 9.216t-23.040 24.064-14.848 32.256-8.704 32.768q-1.024 6.144-5.632 29.696t-11.264 58.88-14.848 78.848-16.384 87.552q-19.456 103.424-44.032 230.4h-76.8q-15.36 0-25.6 7.68t-16.896 18.432-9.216 23.040-2.56 22.528q0 20.48 13.824 33.792t37.376 13.312h103.424q20.48 0 32.768-6.144t19.456-15.36 10.24-19.456 5.12-17.408q2.048-8.192 4.096-23.040t4.096-30.208q3.072-18.432 6.144-38.912h700.416z" />
<glyph unicode="&#xe90e;" glyph-name="star" d="M565.273 925.373l112.096-237.542c8.707-18.321 25.411-31.052 44.823-33.996l250.777-38.081c48.697-7.411 68.225-70.046 32.934-105.98l-181.494-184.937c-13.998-14.231-20.352-34.815-17.059-54.935l42.819-261.127c8.347-50.696-42.642-89.452-86.225-65.518l-224.308 123.271c-17.286 9.526-37.993 9.526-55.279 0l-224.314-123.271c-43.583-23.934-94.572 14.823-86.22 65.518l42.814 261.127c3.321 20.12-3.089 40.705-17.087 54.935l-181.439 184.937c-35.286 35.934-15.819 98.574 32.934 105.98l250.749 38.081c19.351 2.939 36.083 15.675 44.756 33.996l112.124 237.542c21.825 46.168 84.836 46.168 106.6 0z" />
<glyph unicode="&#xe90f;" glyph-name="tab" d="M622.277 920.615h-220.554c-13.785 0-23.631-11.815-23.631-25.6v-49.231c0-13.785 11.815-25.6 23.631-25.6h220.554c13.785 0 23.631 11.815 23.631 25.6v49.231c1.969 13.785-9.846 25.6-23.631 25.6zM959.015 920.615h-220.554c-13.785 0-25.6-11.815-25.6-25.6v-49.231c0-13.785 11.815-25.6 25.6-25.6h220.554c13.785 1.969 25.6 11.815 25.6 25.6v49.231c0 13.785-11.815 25.6-25.6 25.6zM959.015 755.2h-624.246c-13.785 0-25.6 11.815-25.6 25.6v114.215c0 13.785-11.815 25.6-25.6 25.6h-218.585c-13.785 0-25.6-11.815-25.6-25.6v-896c0-11.815 11.815-23.631 25.6-23.631h894.031c13.785 0 25.6 11.815 25.6 25.6v728.615c0 13.785-11.815 25.6-25.6 25.6z" />
<glyph unicode="&#xe910;" glyph-name="table" d="M67.039 859.589h889.919v-200.231h-889.919v200.231zM67.039 614.861h266.976v-266.975h-266.976v266.975zM67.039 303.389h266.976v-266.976h-266.976v266.976zM378.511 614.861h266.976v-266.975h-266.976v266.975zM378.511 303.389h266.976v-266.976h-266.976v266.976zM689.983 614.861h266.976v-266.975h-266.976v266.975zM689.983 303.389h266.976v-266.976h-266.976v266.976z" />
<glyph unicode="&#xe911;" glyph-name="theme" d="M1004.094 638.908l-241.357 241.357c-12.354 12.355-29.421 19.996-48.273 19.996s-35.919-7.642-48.273-19.996l-30.293-30.293c-12.352-12.353-29.415-19.996-48.263-20.002h-151.195c-0.006 0-0.013 0-0.021 0-18.844 0-35.902 7.644-48.243 20.001l-30.294 30.294c-12.354 12.355-29.421 19.996-48.273 19.996s-35.919-7.642-48.273-19.996l-241.374-241.357c-12.355-12.354-19.996-29.421-19.996-48.273s7.642-35.919 19.996-48.273l96.546-96.546c12.278-12.287 29.245-19.888 47.988-19.888 6.646 0 13.068 0.956 19.137 2.737l-0.48-0.121c10.803 3.072 21.675-4.181 21.675-15.411v-349.133c0-37.547 30.72-68.267 68.267-68.267h477.867c37.547 0 68.267 30.72 68.267 68.267v349.133c0 11.23 10.871 18.483 21.675 15.411 5.59-1.661 12.012-2.616 18.658-2.616 18.742 0 35.709 7.6 47.987 19.887l96.547 96.547c12.355 12.354 19.996 29.421 19.996 48.273s-7.642 35.919-19.996 48.273v0z" />
<glyph unicode="&#xe912;" glyph-name="user" d="M504.951 448.020c93.49 0 169.28 74.002 169.28 165.26 0 91.276-75.79 165.248-169.28 165.248-93.486 0-169.287-73.972-169.279-165.248-0.001-91.258 75.793-165.26 169.28-165.26zM582.551 392.922h-141.085c-120.767 0-218.678-95.564-218.678-213.45v-13.772c0-48.183 97.911-48.229 218.678-48.229h141.084c120.754 0 218.66 1.78 218.66 48.229v13.77c0 117.887-97.898 213.45-218.66 213.45z" />
<glyph unicode="&#xe913;" glyph-name="wechat" d="M669.029 642.604c10.181 0 20.236-0.748 30.238-1.865-27.167 126.533-162.436 220.531-316.852 220.531-172.618 0-314.035-117.66-314.035-267.067 0-86.242 47.044-157.061 125.674-211.988l-31.407-94.468 109.755 55.053c39.303-7.781 70.81-15.765 110.011-15.765 9.85 0 19.625 0.482 29.323 1.243-6.144 20.996-9.698 42.983-9.698 65.792 0.002 137.197 117.807 248.533 266.991 248.533zM500.168 727.743c23.639 0 39.303-15.55 39.303-39.185 0-23.536-15.664-39.3-39.303-39.3-23.536 0-47.147 15.765-47.147 39.3 0.001 23.635 23.612 39.185 47.147 39.185zM280.403 649.257c-23.537 0-47.3 15.765-47.3 39.3 0 23.635 23.764 39.185 47.3 39.185s39.2-15.55 39.2-39.185c0-23.535-15.665-39.3-39.2-39.3zM955.618 397.853c0 125.543-125.622 227.882-266.734 227.882-149.413 0-267.091-102.339-267.091-227.882 0-125.77 117.678-227.879 267.091-227.879 31.279 0 62.838 7.897 94.243 15.765l86.12-47.17-23.613 78.473c63.041 47.286 109.983 109.993 109.983 180.811zM602.307 437.142c-15.639 0-31.431 15.549-31.431 31.417 0 15.651 15.792 31.405 31.431 31.405 23.74 0 39.303-15.755 39.303-31.405 0-15.867-15.563-31.417-39.303-31.417zM775.028 437.142c-15.539 0-31.202 15.549-31.202 31.417 0 15.651 15.664 31.405 31.202 31.405 23.536 0 39.301-15.755 39.301-31.405 0.001-15.867-15.765-31.417-39.301-31.417z" />
<glyph unicode="&#xe914;" glyph-name="zip" d="M619.364 26.604c1.373-0.064 2.682-0.192 4.054-0.192h309.291c36.219 0.036 65.57 29.388 65.606 65.603v717.012c-0.036 36.219-29.388 65.57-65.603 65.606h-309.295c-1.373 0-2.714-0.128-4.054-0.192v85.591l-603.673-80.579v-858.404l603.673-82.654v88.209zM619.364 836.705c1.341 0.192 2.682 0.415 4.054 0.415h309.291c15.516 0 28.126-12.61 28.126-28.126v-717.008c-0.018-15.526-12.6-28.108-28.124-28.126h-309.293c-1.373 0-2.714 0.223-4.054 0.415v772.398zM248.33 354.571l-143.919 3.671v23.401l86.868 133.256v1.181l-78.919-1.309v36.044l134.565 3.512v-26.083l-87.507-133.735v-1.149l88.912-1.405v-37.352zM320.736 352.719l-44.759 1.149v201.192l44.759 1.149v-203.491zM491.823 445.685c-16.665-15.356-41.152-22.060-69.341-21.869-0.196-0.001-0.427-0.002-0.658-0.002-5.454 0-10.818 0.384-16.067 1.125l0.604-0.070v-74.354l-46.1 1.181v202.789c14.239 2.809 34.383 5.172 63.18 5.938 29.499 0.766 50.793-4.31 65.191-15.292 13.887-10.44 23.305-27.966 23.305-48.846s-7.119-38.629-20.081-50.601zM425.898 524.86c-0.255 0.003-0.557 0.005-0.859 0.005-6.628 0-13.069-0.805-19.229-2.322l0.55 0.115v-61.392c4.023-0.926 8.971-1.213 15.835-1.213 25.381 0.032 41.215 12.898 41.215 34.479 0 19.379-13.632 30.712-37.48 30.297zM732.22 821.094h73.524v-30.329h-73.524v30.329zM658.664 775.696h73.524v-30.361h-73.524v30.361zM732.22 726.020h73.524v-30.361h-73.524v30.361zM732.22 630.117h73.524v-30.329h-73.524v30.329zM658.664 678.835h73.524v-30.329h-73.524v30.329zM731.486 302.693c40.2 0 72.789 32.589 72.789 72.789 0 0.011 0 0.022 0 0.034v-0.002l-13.44 121.986c0 40.226-19.155 72.821-59.381 72.821s-59.349-32.596-59.349-72.821l-13.472-121.986c0-0.010 0-0.021 0-0.032 0-40.2 32.589-72.789 72.789-72.789 0.011 0 0.023 0 0.034 0h-0.002zM707.382 436.555h48.207v-101.841h-48.207v101.841z" />
<glyph unicode="&#xe915;" glyph-name="404" d="M931.6 374.4v-79c28.6 60.2 44.8 127.4 44.8 198.4 0 255.2-207 462.2-462.2 462.2s-462.2-207-462.2-462.2c0-3.2 0.2-6.4 0.2-9.6l166 206h96.4l-142.8-215.8h46.4v54.8l99.2 154.6v-391.8h-99.2v82.4h-150.6c43-161 170.6-287.4 332.4-328.6-10.4-26.2-40.6-89.4-90.8-100.6-62.2-14 168.8-3.4 333.6 104.6 126.6 36.6 230.8 125.8 287.4 242.2h-97.6v82.4h-166.2v109.6l166.2 206.2h94l-140.4-215.8h46.4v59l99.2 154v-313zM366.2 352c-4.8 11.2-7.2 23.2-7.2 36v214.4c0 12.8 2.4 24.8 7.2 36s11.4 21 19.6 29.2c8.2 8.2 18 14.8 29.2 19.6s23.2 7.2 36 7.2h81.6c12.8 0 24.8-2.4 36-7.2 11-4.8 20.6-11.2 28.8-19.2l-88.6-129.4v23c0 4.8-1.6 8.8-4.8 12s-7.2 4.8-12 4.8c-4.8 0-8.8-1.6-12-4.8s-4.8-7.2-4.8-12v-72l-102.6-149.6c-2.4 3.8-4.6 7.8-6.4 12zM624.4 388c0-12.8-2.4-24.8-7.2-36s-11.4-21-19.6-29.2c-8.2-8.2-18-14.8-29.2-19.6s-23.2-7.2-36-7.2h-81.6c-12.8 0-24.8 2.4-36 7.2s-21 11.4-29.2 19.6c-3.6 3.6-7 7.8-10 12l99.2 144.6v-50.6c0-4.8 1.6-8.8 4.8-12s7.2-4.8 12-4.8c4.8 0 8.8 1.6 12 4.8s4.8 7.2 4.8 12v99.6l92.6 135.2c6.6-7.4 12-15.8 16-25.2 4.8-11.2 7.2-23.2 7.2-36v-214.4z" />
<glyph unicode="&#xe916;" glyph-name="bug" d="M969.143 411.429q0-14.848-10.862-25.71t-25.71-10.862h-128q0-97.719-38.29-165.705l118.857-119.442q10.862-10.862 10.862-25.71t-10.862-25.71q-10.277-10.862-25.71-10.862t-25.71 10.862l-113.152 112.567q-2.853-2.853-8.558-7.424t-23.991-16.274-37.157-20.846-46.848-16.567-55.442-7.424v512h-73.143v-512q-29.147 0-58.002 7.717t-49.701 18.871-37.705 22.272-24.869 18.578l-8.558 8.009-104.558-118.272q-11.447-11.995-27.429-11.995-13.714 0-24.576 9.143-10.862 10.277-11.703 25.417t8.85 26.587l115.419 129.719q-33.134 65.134-33.134 156.562h-128q-14.848 0-25.71 10.862t-10.862 25.71 10.862 25.71 25.71 10.862h128v168.009l-98.853 98.853q-10.862 10.862-10.862 25.71t10.862 25.71 25.71 10.862 25.71-10.862l98.853-98.853h482.304l98.853 98.853q10.862 10.862 25.71 10.862t25.71-10.862 10.862-25.71-10.862-25.71l-98.853-98.853v-168.009h128q14.848 0 25.71-10.862t10.862-25.71zM694.857 740.571h-365.714q0 75.995 53.431 129.426t129.426 53.431 129.426-53.431 53.431-129.426z" />
<glyph unicode="&#xe917;" glyph-name="chart" d="M64 512h256v-512h-256v512zM704 704h256v-704h-256v704zM384 896h256v-896h-256v896z" />
<glyph unicode="&#xe918;" glyph-name="clipboard" d="M438.857 9.143h512v365.714h-237.714q-22.821 0-38.839 16.018t-16.018 38.839v237.714h-219.429v-658.286zM585.143 832v36.571q0 7.461-5.413 12.873t-12.873 5.413h-402.286q-7.461 0-12.873-5.413t-5.413-12.873v-36.571q0-7.461 5.413-12.873t12.873-5.413h402.286q7.461 0 12.873 5.413t5.413 12.873zM731.429 448h170.862l-170.862 170.862v-170.862zM1024 374.857v-384q0-22.821-16.018-38.839t-38.839-16.018h-548.571q-22.821 0-38.839 16.018t-16.018 38.839v91.429h-310.857q-22.821 0-38.839 16.018t-16.018 38.839v768q0 22.821 16.018 38.839t38.839 16.018h621.714q22.821 0 38.839-16.018t16.018-38.839v-187.465q11.995-7.461 20.553-16.018l233.179-233.179q16.018-16.018 27.429-43.447t11.41-50.322z" />
<glyph unicode="&#xe919;" glyph-name="component" d="M64 896h384v-384h-384v384zM64 384h384v-384h-384v384zM576 384h384v-384h-384v384zM768 512c106.039 0 192 85.961 192 192s-85.961 192-192 192c-106.039 0-192-85.961-192-192s85.961-192 192-192z" />
<glyph unicode="&#xe91a;" glyph-name="dashboard" d="M219.429 301.714q0 30.286-21.429 51.714t-51.714 21.429-51.714-21.429-21.429-51.714 21.429-51.714 51.714-21.429 51.714 21.429 21.429 51.714zM329.143 557.714q0 30.286-21.429 51.714t-51.714 21.429-51.714-21.429-21.429-51.714 21.429-51.714 51.714-21.429 51.714 21.429 21.429 51.714zM573.714 282.857l57.714 218.286q3.429 14.857-4.286 27.714t-22 16.857-27.429-3.714-17.143-22.571l-57.714-218.286q-34.286-2.857-61.143-24.857t-36-56.286q-11.429-44 11.429-83.429t66.857-50.857 83.429 11.429 50.857 66.857q9.143 34.286-3.429 66.857t-41.143 52zM950.857 301.714q0 30.286-21.429 51.714t-51.714 21.429-51.714-21.429-21.429-51.714 21.429-51.714 51.714-21.429 51.714 21.429 21.429 51.714zM585.143 667.429q0 30.286-21.429 51.714t-51.714 21.429-51.714-21.429-21.429-51.714 21.429-51.714 51.714-21.429 51.714 21.429 21.429 51.714zM841.143 557.714q0 30.286-21.429 51.714t-51.714 21.429-51.714-21.429-21.429-51.714 21.429-51.714 51.714-21.429 51.714 21.429 21.429 51.714zM1024 301.714q0-149.143-80.571-276-10.857-16.571-30.857-16.571h-801.143q-20 0-30.857 16.571-80.571 126.286-80.571 276 0 104 40.571 198.857t109.143 163.429 163.429 109.143 198.857 40.571 198.857-40.571 163.429-109.143 109.143-163.429 40.571-198.857z" />
<glyph unicode="&#xe91b;" glyph-name="documentation" d="M554.667 576h234.667l-234.667 234.667v-234.667zM256 874.667h341.333l256-256v-512c0-47.128-38.205-85.333-85.333-85.333v0h-512c-47.128 0-85.333 38.205-85.333 85.333v682.667c0 47.36 37.973 85.333 85.333 85.333zM640 192v85.333h-384v-85.333h384zM768 362.667v85.333h-512v-85.333h512z" />
<glyph unicode="&#xe91c;" glyph-name="drag" d="M574.958 692.984h141.195l-204.941 203.362-203.362-203.362h141.191v-189.663h-190.353v-125.917h190.353v-190.354h125.917v190.354h188.875v125.917h-188.875v189.663zM511.254-0.345l189.621 187.395h-377.749l188.129-187.395zM71.292 441.108l187.395-189.621v377.75l-187.395-188.13zM763.833 629.238v-377.749l188.875 189.621-188.875 188.129z" />
<glyph unicode="&#xe91d;" glyph-name="email" d="M513 376.2l448.5 448.5c-11.6 4.7-24.3 7.3-37.5 7.3h-824c-12.7 0-24.9-2.4-36.1-6.7l449.1-449.1zM513 285.7l-498.4 498.4c-9.3-15.2-14.6-33-14.6-52.1v-568c0-55.2 44.8-100 100-100h824c55.2 0 100 44.8 100 100v568c0 18.5-5.1 35.9-13.9 50.8l-497.1-497.1z" />
<glyph unicode="&#xe91e;" glyph-name="example" d="M770.56 499.2h250.88c-23.040 240.64-217.6 435.2-458.24 458.24v-250.88c104.96-20.48 186.88-102.4 207.36-207.36v0zM460.8 706.56v250.88c-240.64-23.040-435.2-217.6-458.24-458.24h250.88c20.48 104.96 102.4 186.88 207.36 207.36v0zM563.2 189.44v-250.88c243.2 23.040 435.2 217.6 460.8 460.8h-250.88c-23.040-107.52-104.96-189.44-209.92-209.92v0zM253.44 396.8h-250.88c23.040-243.2 217.6-435.2 460.8-460.8v250.88c-107.52 23.040-189.44 104.96-209.92 209.92v0z" />
<glyph unicode="&#xe91f;" glyph-name="like" d="M106.686 85.351h106.661v405.314h-106.661v-405.314zM42.689 511.921c0 23.606 19.202 42.741 42.494 42.741h149.667c23.469 0 42.495-18.98 42.495-42.741v-447.825c0-23.606-19.203-42.741-42.495-42.741h-149.667c-23.469 0-42.494 18.98-42.494 42.741v447.825zM575.545 809.321c-5.217-125.988-54.657-255.745-105.951-302.128-11.305-10.253-26.382-16.529-42.924-16.529h-63.997v-405.268c16.685 0.033 40.204 0.078 59.576 0.109 58.268 0.094 115.901 0.151 169.793 0.155 72.659 0.004 132.781-0.092 175.277-0.312 34.758 0.363 71.263 27.687 93.414 69.398 58.907 110.924 81.683 271.134 45.604 321.091-1.645 1.024-6.838 2.849-17.402 4.911-33.56 6.549-97.234 9.918-206.275 9.918-43.36 0-74.169 42.211-60.95 83.507 12.446 38.886 19.515 107.551 11.319 157.916-7.738 47.543-24.036 71.508-57.483 77.234zM693.804 603.388c-3.325-20.098-7.409-37.050-11.146-48.726 16.679 0 32.279-0.078 46.88-0.232 12.852 0 19.36-0.087 19.523-0.261 172.685-2.828 191.754-17.724 209.642-42.171 59.536-81.368 18.482-274.415-41.449-387.268-28.572-53.802-82.717-102.68-149.267-103.375-139.063 0.695-423.715 0-426.646 0-28.636 0-42.665 23.66-42.665 42.665v447.979c0 28.61 15.972 42.665 42.665 42.665h85.329c27.585 24.944 85.649 139.476 85.329 277.32 0.32 0 2.914 42.665 42.665 42.665 145.879 3.623 154.977-155.085 141.424-256.002-0.038-0.279-0.799-5.365-2.284-15.257z" />
<glyph unicode="&#xe920;" glyph-name="love" d="M513.402 81.37c-20.164 0-207.085 164.514-289.019 253.204-46.003 49.797-91.85 133.604-91.85 194.944 0 130.201 94.799 236.114 211.332 236.114 71.161 0 131.555-59.236 168.816-120.437 37.261 61.201 97.633 120.437 168.815 120.437 116.527 0 211.328-105.912 211.328-236.114 0-61.476-41.28-148.618-92.281-195.336-90.063-82.503-265.804-252.812-287.142-252.812z" />
<glyph unicode="&#xe921;" glyph-name="search" d="M947.403 70.523l-208.071 208.071c23.303 28.866 42.131 60.786 56.138 95.327 18.48 45.569 27.849 93.707 27.849 143.079s-9.369 97.51-27.849 143.078c-19.14 47.2-47.244 89.531-83.532 125.82s-78.62 64.393-125.82 83.532c-45.568 18.479-93.706 27.848-143.078 27.848s-97.51-9.369-143.079-27.848c-47.2-19.14-89.531-47.244-125.82-83.532s-64.393-78.621-83.532-125.82c-18.479-45.569-27.848-93.707-27.848-143.078s9.369-97.51 27.848-143.079c19.14-47.199 47.244-89.53 83.532-125.819 36.287-36.288 78.62-64.394 125.82-83.532 45.569-18.48 93.707-27.849 143.079-27.849s97.51 9.369 143.078 27.849c34.542 14.006 66.462 32.834 95.328 56.138l208.071-208.071c7.993-7.993 18.468-11.989 28.943-11.989s20.951 3.996 28.943 11.989c15.985 15.985 15.985 41.901 0 57.886zM443.039 218.585c-79.709 0-154.647 31.041-211.011 87.404-56.363 56.363-87.404 131.301-87.404 211.011s31.040 154.647 87.404 211.011c56.364 56.363 131.301 87.404 211.011 87.404s154.648-31.040 211.011-87.404c56.363-56.364 87.404-131.301 87.404-211.011s-31.041-154.648-87.404-211.011-131.301-87.404-211.011-87.404z" />
<glyph unicode="&#xe922;" glyph-name="home" d="M865.911 527.435l-26.965 27.584c-0.363 0.384-307.136 307.733-307.136 307.733-16.085 16.128-43.392 15.851-58.944-0.64l-299.307-317.013-124.779-127.616c-8.149-8.341-8.149-21.824 0-30.165 4.075-4.16 9.408-6.251 14.741-6.251 5.355 0 10.688 2.091 14.763 6.251l78.421 80.213v-393.984c0-35.392 28.096-64.213 62.613-64.213h186.027v273.195h213.333v-273.195h184.619c34.517 0 62.613 28.821 62.613 64.213v393.557l76.288-78.016c4.075-4.16 9.408-6.251 14.763-6.251 5.333 0 10.667 2.091 14.741 6.251 8.149 8.341 8.149 21.824 0 30.165l-105.792 108.181z" />
<glyph unicode="&#xe923;" glyph-name="data" d="M960 505.6l-6.4 384c0 32-38.4 51.2-70.4 51.2h-748.8c-32-6.4-70.4-25.6-70.4-51.2v-384c-32 0-57.6-19.2-57.6-51.2v-422.4c0-32 32-76.8 57.6-76.8h896c32 0 57.6 51.2 57.6 76.8v422.4c0 32-25.6 51.2-57.6 51.2zM857.6 505.6h-691.2v332.8c0 32 12.8 38.4 38.4 38.4h620.8c32 0 38.4-6.4 38.4-38.4v-332.8h-6.4zM787.2 787.2h-550.4c-19.2 0-32-12.8-32-32s19.2-32 32-32h544c19.2 0 32 12.8 32 32 6.4 19.2-6.4 32-25.6 32zM787.2 627.2h-550.4c-19.2 0-32-12.8-32-32s19.2-32 32-32h544c19.2 0 32 12.8 32 32 6.4 19.2-6.4 32-25.6 32z" />
<glyph unicode="&#xe924;" glyph-name="checkbox" horiz-adv-x="1027" d="M272.108 273.412c0 0 328.121 441.207 565.364 561.716 0 0 139.133 31.487 174.396 0 0 0 51.775-50.047-37.055-90.814 0 0-400.504-239.163-556.212-535.797 0 0-94.526-170.492-163.133-161.277-68.607 9.28-81.598 14.848-127.997 85.246-46.335 70.527-96.382 216.955-122.301 241.019-25.983 24.127 50.047 111.294 137.213 87.166 87.102-24.127 129.725-187.26 129.725-187.26z" />
<glyph unicode="&#xe925;" glyph-name="wechat1" d="M1004.416 416.085c-25.984 58.88-75.008 105.643-131.925 134.443-100.437 50.859-225.323 50.56-325.504-1.28-69.589-35.712-127.701-99.712-144.171-177.579-13.568-57.344-1.408-119.083 29.013-169.003 45.269-75.179 127.104-123.179 212.096-138.581 61.568-12.501 125.269-5.077 185.088 12.16 35.925-13.909 67.925-36.437 102.741-53.163-13.394 45.966-23.229 75.803-33.666 105.355l4.824-15.67c39.083 27.733 74.496 62.336 95.744 105.771 31.744 60.373 33.664 135.296 5.76 197.547zM580.992 819.968c-106.453 59.904-239.019 68.907-353.536 27.52-75.264-27.093-143.36-77.44-185.429-145.92-38.187-61.867-52.48-139.008-34.091-209.792 18.475-78.507 73.003-144.341 139.179-188.288-12.8-36.267-24.96-72.491-36.48-109.013 41.6 21.76 83.2 44.501 124.843 66.603 49.92-16 103.040-23.851 156.16-22.101-8.935 25.318-14.097 54.513-14.097 84.914 0 14.473 1.17 28.672 3.421 42.509l-0.203-1.514c9.6 58.496 41.6 112 85.077 151.637 73.643 68.907 177.963 97.963 277.163 90.923-18.603 91.093-82.603 168.064-163.157 212.48h1.152zM654.933 393.771c-8.917-27.819-49.323-36.181-68.907-15.019-21.589 19.584-13.184 60.501 15.147 69.248 31.317 13.227 67.499-22.912 53.76-54.229zM859.52 389.845c-10.923-25.003-48.683-30.848-67.243-11.52-8.917 8.149-11.52 20.437-14.677 31.147 4.437 19.541 17.92 39.808 39.68 40.747 30.080 4.181 57.003-32.981 41.6-60.416h0.64zM554.24 665.216c0.341-41.003-54.4-66.603-85.12-38.784-31.872 22.827-22.827 78.379 14.592 89.856 33.493 13.44 73.088-14.677 70.443-50.56l0.085-0.512zM295.723 654.805c-7.339-35.627-55.083-52.821-83.029-28.928-32.384 22.827-23.296 79.403 14.72 90.923 37.248 14.336 79.573-23.467 68.309-61.995z" />
<glyph unicode="&#xe926;" glyph-name="edit" d="M83.2-12.8c-6.4 0-12.8 0-19.2 6.4l-6.4 6.4c-6.4 6.4-12.8 19.2-6.4 25.6 6.4 38.4 57.6 217.6 96 262.4l576 576c25.6 25.6 57.6 38.4 96 38.4s70.4-12.8 102.4-44.8l6.4-6.4c25.6-25.6 44.8-64 44.8-96 0-38.4-12.8-76.8-38.4-102.4l-576-576c-44.8-38.4-230.4-76.8-275.2-89.6 6.4 0 6.4 0 0 0zM819.2 851.2c-19.2 0-38.4-6.4-51.2-19.2l-576-576c-19.2-19.2-51.2-115.2-76.8-198.4 83.2 19.2 179.2 51.2 198.4 70.4l576 576c12.8 12.8 19.2 32 19.2 57.6s-12.8 44.8-25.6 57.6l-6.4 6.4c-12.8 12.8-32 25.6-57.6 25.6zM870.4 646.4c-6.4 0-6.4 0-12.8 6.4l-153.6 153.6c-6.4 6.4-6.4 12.8 0 19.2s12.8 6.4 19.2 0l153.6-153.6c6.4-6.4 6.4-12.8 0-19.2 0-6.4 0-6.4-6.4-6.4zM345.6 121.6c-6.4 0-6.4 0-12.8 6.4l-153.6 153.6c-6.4 6.4-6.4 12.8 0 19.2s12.8 6.4 19.2 0l153.6-153.6c6.4-6.4 6.4-12.8 0-19.2 0-6.4 0-6.4-6.4-6.4zM236.8 51.2c-6.4 0-6.4 0-12.8 6.4l-96 102.4c-6.4 6.4-6.4 12.8 0 19.2s12.8 6.4 19.2 0l96-102.4c6.4-6.4 6.4-12.8 0-19.2 0-6.4-6.4-6.4-6.4-6.4zM249.6 217.6c-6.4 0-6.4 0-12.8 6.4s-6.4 12.8 0 19.2l428.8 428.8c6.4 6.4 12.8 6.4 19.2 0s6.4-12.8 0-19.2l-428.8-428.8c6.4-6.4 0-6.4-6.4-6.4zM723.2 691.2c-6.4 0-6.4 0-12.8 6.4s-6.4 12.8 0 19.2l51.2 51.2c6.4 6.4 12.8 6.4 19.2 0s6.4-12.8 0-19.2l-51.2-51.2c0-6.4-6.4-6.4-6.4-6.4zM300.8 172.8c-6.4 0-6.4 0-12.8 6.4s-6.4 12.8 0 19.2l524.8 524.8c6.4 6.4 12.8 6.4 19.2 0s6.4-12.8 0-19.2l-524.8-524.8c0-6.4-6.4-6.4-6.4-6.4z" />
<glyph unicode="&#xe927;" glyph-name="Delete" d="M223.595 641.716l24.022-480.742c0-54.376 44.99-98.456 100.486-98.456h331.964c55.495 0 100.49 44.079 100.49 98.456l23.109 480.742h-580.070zM831.749 675.819c0.099 20.275 0.159 21.623 0.159 22.981 0 52.871-31.299 81.888-73.295 81.888l-116.892-0.123c0 27.751-27.105 50.245-54.855 50.245h-145.515c-27.745 0-55.727-22.494-55.727-50.245l-117.013 0.123c-46.387 0-73.295-35.359-73.295-81.888 0-1.363 0.054-2.707 0.159-22.981h636.276zM614.169 515.385c0 15.327 12.422 27.75 27.745 27.75 15.327 0 27.75-12.423 27.75-27.75v-317.883c0-15.328-12.423-27.751-27.75-27.751-15.323 0-27.745 12.423-27.745 27.751v317.883zM485.859 515.385c0 15.327 12.427 27.75 27.751 27.75 15.327 0 27.75-12.423 27.75-27.75v-317.883c0-15.328-12.423-27.751-27.75-27.751-15.323 0-27.751 12.423-27.751 27.751v317.883zM357.637 515.385c0 15.327 12.423 27.75 27.751 27.75 15.322 0 27.75-12.423 27.75-27.75v-317.883c0-15.328-12.427-27.751-27.75-27.751-15.328 0-27.751 12.423-27.751 27.751v317.883z" />
<glyph unicode="&#xe928;" glyph-name="user1" d="M902.4 141.9c-37 119.1-128.8 216.6-245.5 260.9-6.3 2.4-13.5 1.4-19-2.6-36.7-27-80.3-41.2-125.9-41.2s-89.2 14.2-125.9 41.2c-5.5 4-12.6 5-19 2.6-116.8-44.3-208.5-141.8-245.5-260.9-10.4-33.4-4.4-68.8 16.4-97s52.8-44.4 87.8-44.4h572.4c35 0 67 16.2 87.8 44.4s26.8 63.5 16.4 97zM853.7 68.6c-13.1-17.8-33.4-28.1-55.5-28.1h-572.4c-22.1 0-42.4 10.2-55.5 28.1-13.1 17.8-16.9 40.2-10.3 61.3 32.3 104.1 111 189.9 211.6 231.5 41.6-27.8 89.9-42.5 140.4-42.5 50.4 0 98.8 14.7 140.4 42.5 100.6-41.6 179.3-127.4 211.7-231.4 6.5-21.2 2.8-43.5-10.4-61.4zM512 389.1c139.6 0 253.2 113.6 253.2 253.2 0 139.7-113.6 253.3-253.2 253.3s-253.2-113.6-253.2-253.2c0-139.7 113.6-253.3 253.2-253.3zM512 855.4c117.5 0 213.1-95.6 213.1-213.1s-95.6-213.1-213.1-213.1-213.1 95.6-213.1 213.1 95.6 213.1 213.1 213.1z" />
<glyph unicode="&#xe929;" glyph-name="refresh" d="M939.456 703.776c-16.672 5.984-34.976-2.72-40.896-19.36l-24.768-69.344c-28.992 65.312-74.784 122.72-133.088 165.92-185.376 137.28-449.408 99.776-588.384-83.648-67.264-88.768-95.616-198.176-79.84-308.032 15.84-110.304 74.208-207.776 164.352-274.496 75.424-55.808 163.808-82.752 251.456-82.752 128.032 0 254.56 57.44 336.992 166.272 36.48 48.128 61.472 102.080 74.208 160.416 3.776 17.248-7.136 34.304-24.416 38.080-17.216 3.712-34.304-7.104-38.080-24.416-10.784-49.184-31.872-94.752-62.72-135.456-117.888-155.52-341.92-187.232-499.392-70.72-76.288 56.48-125.664 138.912-139.072 232.16-13.344 92.8 10.656 185.248 67.488 260.288 117.856 155.584 341.792 187.424 499.328 70.848 57.024-42.24 99.84-100.608 122.976-166.624l-109.984 42.944c-16.416 6.368-35.008-1.696-41.44-18.176s1.728-35.008 18.176-41.44l161.856-63.2c3.808-1.472 7.744-2.208 11.616-2.208 0.544 0 1.024 0.192 1.568 0.224 1.216-0.128 2.432-0.64 3.648-0.64 13.12 0 25.472 8.16 30.112 21.248l57.632 161.184c5.984 16.672-2.688 35.008-19.328 40.928z" />
<glyph unicode="&#xe92a;" glyph-name="users" d="M824.896 399.616c100.352-55.616 179.328-154.24 199.104-271.616 0-105.984-86.016-192-192-192h-88.448c37.82 33.056 65.655 76.66 78.952 126.215l0.408 1.785h9.088c35.392 0 64 28.608 64 64-16.512 63.744-60.096 117.248-116.608 151.68-31.304 53.639-70.988 98.791-117.799 135.215l-1.049 0.785c7.424 12.608 13.824 25.792 19.392 39.296 51.008 16.896 88.064 64.384 88.064 121.024v128c0 56.704-37.056 104.192-88.128 121.024-20.864 50.752-55.040 94.144-97.344 127.936 18.56 4.288 37.632 7.040 57.472 7.040 141.376 0 256-114.624 256-256v-128c0-68.544-27.328-130.432-71.104-176.384zM576-64h-384c-106.048 0-192 86.016-192 192 19.776 117.376 98.752 216 199.168 271.616-43.84 45.952-71.168 107.84-71.168 176.384v128c0 141.376 114.624 256 256 256s256-114.624 256-256v-128c0-68.544-27.328-130.432-71.104-176.384 100.352-55.616 179.328-154.24 199.104-271.616 0-105.984-86.016-192-192-192zM512 576v128c0 70.656-57.344 128-128 128s-128-57.344-128-128v-128c0-70.656 57.344-128 128-128s128 57.344 128 128zM640 128c-28.544 110.272-136.896 192-256 192-119.168 0-227.456-81.728-256-192 0-35.346 28.654-64 64-64v0h384c35.392 0 64 28.608 64 64z" />
<glyph unicode="&#xe92b;" glyph-name="close" d="M602.502 448l402.752 402.752c25.024 25.024 25.024 65.472 0 90.496s-65.472 25.024-90.496 0l-402.752-402.752-402.752 402.752c-25.024 25.024-65.472 25.024-90.496 0s-25.024-65.472 0-90.496l402.752-402.752-402.752-402.752c-25.024-25.024-25.024-65.472 0-90.496 12.48-12.48 28.864-18.752 45.248-18.752s32.768 6.272 45.248 18.752l402.752 402.752 402.752-402.752c12.48-12.48 28.864-18.752 45.248-18.752s32.768 6.272 45.248 18.752c25.024 25.024 25.024 65.472 0 90.496l-402.752 402.752z" />
</font>
</defs>
</svg>
